<svg width="1440" height="960" viewBox="0 0 1440 960" fill="none" xmlns="http://www.w3.org/2000/svg">
<g clip-path="url(#clip0_0_3313)">
<rect width="1440" height="960" fill="white"/>
<mask id="path-1-inside-1_0_3313" fill="white">
<path d="M0 0H1440V960H0V0Z"/>
</mask>
<path d="M0 0H1440V960H0V0Z" fill="white"/>
<path d="M1439 0V960H1441V0H1439Z" fill="#E9EAEB" mask="url(#path-1-inside-1_0_3313)"/>
<g opacity="0.4">
<path fill-rule="evenodd" clip-rule="evenodd" d="M188.801 642.637C184.907 643.395 178.849 645.126 175.279 646.425C171.709 647.723 164.136 651.078 158.511 653.891C152.886 656.705 143.149 662.44 136.875 666.66C130.601 670.881 120.864 678.347 115.239 683.434C109.614 688.411 101.825 696.094 97.9301 700.531C94.0356 704.86 87.1121 713.625 82.3522 719.901C77.7004 726.178 70.5605 736.891 66.5579 743.708C62.447 750.526 56.3889 761.996 52.9272 769.138C49.5736 776.281 44.5973 787.751 42.001 794.569C39.2965 801.386 35.9429 811.883 34.4283 817.835C32.3729 826.275 31.6157 832.443 31.1829 845.97C30.7502 857.332 31.0748 866.098 31.9402 871.4C32.6975 875.837 34.4283 882.654 35.7265 886.55C37.0247 890.446 39.5128 896.289 41.1355 899.536C42.7582 902.782 46.22 908.193 48.7081 911.439C51.1963 914.685 55.6317 919.339 58.5525 921.719C61.4734 924.1 67.5315 928.104 71.9669 930.593C76.4023 933.19 87.4366 938.168 96.3074 941.631C105.286 945.202 118.376 949.855 125.516 952.019C132.656 954.183 144.339 956.889 151.479 958.187C162.189 960.027 167.49 960.243 181.77 959.81C194.427 959.378 201.459 958.728 207.733 956.997C212.493 955.807 220.498 952.668 225.475 950.179C231.316 947.258 236.833 943.362 240.728 939.575C244.082 936.22 248.192 930.809 249.923 927.13C252.628 921.611 253.169 919.122 253.493 910.357C253.818 902.133 253.385 898.021 251.221 889.796C249.815 884.169 246.57 874.755 244.082 869.019C241.702 863.176 237.158 853.87 234.021 848.459C230.884 842.94 224.717 833.525 220.174 827.574C215.738 821.622 208.166 812.857 203.406 807.987C198.646 803.226 190.749 796.192 185.881 792.296C181.121 788.509 176.361 785.371 175.387 785.371C174.413 785.371 173.656 785.587 173.656 785.912C173.656 786.236 176.685 789.374 180.255 792.945C183.933 796.516 189.559 802.576 192.696 806.472C195.833 810.368 198.538 813.939 198.538 814.588C198.538 815.237 193.561 810.368 187.395 803.767C181.229 797.166 173.548 789.807 170.303 787.318C167.057 784.829 161.54 781.042 157.97 778.878C154.4 776.822 147.585 773.792 142.825 772.168C136.01 770.004 131.899 769.355 123.352 769.355C116.213 769.247 110.479 769.896 106.585 771.086C103.339 772.06 98.3628 774.333 95.5501 776.172L90.3575 779.419C88.6266 774.008 88.1939 770.653 88.1939 768.597C88.1939 766.541 89.1675 761.672 90.2493 757.776C91.4393 753.88 94.7929 747.063 97.8219 742.626C100.743 738.189 106.476 730.939 110.479 726.502C114.59 722.174 121.838 715.573 126.598 712.002C131.358 708.431 139.471 703.453 144.772 700.856C149.965 698.259 158.403 694.796 163.704 693.173C172.25 690.576 174.738 690.251 190.965 690.251C204.812 690.143 210.762 690.576 217.469 692.199C222.229 693.281 230.018 695.553 234.778 697.285C239.538 699.016 245.812 702.263 248.733 704.535C251.762 706.699 255.657 710.595 257.388 713.084C259.227 715.573 261.823 719.469 263.229 721.741C264.528 724.014 267.124 726.719 268.855 727.801C270.694 728.775 273.398 729.641 274.913 729.641C276.536 729.641 278.916 728.342 280.863 726.394C283.351 723.797 284 722.174 284 718.603C284 715.465 282.918 712.11 280.863 708.539C279.24 705.617 274.697 700.315 270.91 696.852C267.124 693.389 260.309 688.736 255.873 686.463C251.438 684.083 244.622 681.269 240.728 680.079C236.833 678.889 229.044 677.374 223.419 676.616C216.82 675.642 208.815 675.426 201.242 675.859C194.643 676.291 185.232 677.59 180.147 678.672C175.063 679.862 167.274 682.135 162.838 683.65C158.403 685.273 151.587 688.195 147.693 690.143C143.799 692.091 136.226 696.636 130.925 700.207C125.624 703.778 117.078 710.487 112.102 715.248C107.125 719.901 99.5528 728.342 95.3338 733.969C91.0066 739.596 85.3812 748.145 82.7849 752.906C78.674 760.157 77.8086 761.131 77.5922 758.858C77.3759 757.343 78.7822 751.5 80.6213 745.873C82.4604 740.246 85.9221 731.913 88.3021 727.476C90.682 723.04 95.2256 716.006 98.471 711.785C101.608 707.673 107.775 700.856 112.102 696.744C116.537 692.523 124.218 686.463 129.302 683.217C134.387 679.971 142.5 675.426 147.477 673.153C152.345 670.881 161.107 667.634 166.841 665.903C172.683 664.28 180.796 662.224 185.015 661.574C189.234 660.817 198.213 659.843 205.028 659.302C214.657 658.544 217.902 657.895 219.416 656.38C220.498 655.298 221.364 653.026 221.364 651.186C221.364 649.238 220.39 647.074 218.876 645.667C217.469 644.368 215.306 642.745 213.899 642.096C212.601 641.447 207.949 640.906 203.622 641.014C199.403 641.014 192.696 641.771 188.801 642.637ZM110.695 801.602C107.775 802.468 103.88 804.849 101.933 806.797C99.6611 808.961 97.9302 812.207 97.0648 815.67C96.1994 818.808 95.983 822.92 96.4157 825.409C96.7403 827.79 98.1466 831.902 99.3366 834.608C100.635 837.313 104.313 842.182 107.666 845.537C111.453 849.433 116.645 853.112 122.271 855.926C127.031 858.306 134.603 861.661 139.039 863.176C143.474 864.799 155.158 868.587 165.002 871.617C177.226 875.404 184.907 877.135 189.126 877.244C194.751 877.352 195.725 877.027 198.105 874.43C199.62 872.59 200.701 869.993 200.701 868.154C200.701 866.422 199.944 863.068 198.971 860.903C198.105 858.631 195.184 853.87 192.696 850.298C190.1 846.727 181.77 837.421 174.089 829.522C165.543 820.756 157.213 813.506 152.561 810.476C148.342 807.879 142.068 804.632 138.498 803.226C134.712 801.819 128.653 800.629 123.893 800.412C118.593 800.087 114.049 800.52 110.587 801.602H110.695Z" fill="#818181"/>
<path d="M26.5312 790.998C22.7449 795.651 17.8768 802.576 15.605 806.472C13.3332 810.368 10.196 816.861 8.57328 821.081C6.95058 825.301 4.78697 832.01 3.70517 836.231C2.62337 840.451 1.21703 848.892 0.567946 855.168C-0.189315 862.959 -0.189315 869.885 0.567946 877.352C1.21703 883.304 2.62337 891.852 3.81335 896.289C4.89515 900.726 7.16694 907.543 8.78964 911.439C10.5205 915.335 12.9005 920.313 14.3068 922.585C15.7132 924.749 18.634 928.645 20.7976 931.026C23.0694 933.515 27.8294 937.627 31.3993 940.116C34.9692 942.713 40.811 946.176 44.3809 948.015C47.9509 949.747 55.6317 952.777 61.3652 954.616C67.2069 956.456 74.6714 958.295 78.025 958.837C82.3522 959.378 84.2994 959.269 85.273 958.187C86.1385 957.249 86.2106 956.492 85.4894 955.915C84.8403 955.374 79.9722 952.668 74.6714 949.855C69.2624 947.041 61.3652 942.28 56.9298 939.142C52.4944 936.112 46.1118 930.917 42.8664 927.671C39.5128 924.425 34.7529 918.798 32.3729 915.227C29.8848 911.656 26.9639 906.786 25.7739 904.405C24.4758 902.025 22.5285 896.938 21.3385 893.043C20.1486 889.147 18.5259 881.68 17.8768 876.27C16.9032 868.803 16.795 863.825 17.7686 854.627C18.5259 848.134 20.0404 838.07 21.3385 832.443C22.5285 826.816 25.233 817.293 27.2885 811.342C29.3439 805.39 32.5893 797.599 34.3202 794.028C36.051 790.457 37.3492 786.561 37.1329 785.371C36.9165 784.18 36.051 783.098 34.9692 782.882C33.8874 782.665 30.8584 785.479 26.5312 790.998Z" fill="#818181"/>
</g>
</g>
<defs>
<clipPath id="clip0_0_3313">
<rect width="1440" height="960" fill="white"/>
</clipPath>
</defs>
</svg>
